<?xml version="1.0" encoding="utf-8"?>
<!-- Svg Vector Icons : http://www.onlinewebfonts.com/icon -->
<!DOCTYPE svg PUBLIC "-//W3C//DTD SVG 1.1//EN" "http://www.w3.org/Graphics/SVG/1.1/DTD/svg11.dtd">
<svg version="1.1" xmlns="http://www.w3.org/2000/svg" xmlns:xlink="http://www.w3.org/1999/xlink" x="0px" y="0px" viewBox="0 0 1000 1000" enable-background="new 0 0 1000 1000" xml:space="preserve">
<metadata> Svg Vector Icons : http://www.onlinewebfonts.com/icon </metadata>
<g><path d="M104.1,705.2"/><path d="M978.7,420.9L581.6,95c-9.2-7.5-21.8-8.9-32.5-3.9c-10.7,5.1-17.5,15.8-17.5,27.7l-0.9,171.9c-178,5.7-315.8,62.9-405.1,167.4C-19.9,628.2,12.6,875.5,14.1,885.8c2.3,15,13.3,26,28.4,26c0.3,0,0.7,0,1.1,0c15.5-0.5,25.3-12.5,26.6-28c1-11.3,31.5-286.2,460.6-285.9l0.9,175.8c0,11.8,6.8,22.6,17.6,27.7c10.6,5.1,23.4,3.5,32.5-4l397.1-329c7.1-5.8,11.2-14.5,11.2-23.7C990,435.4,985.8,426.7,978.7,420.9z M592.9,708.8v-142c0-8.1-3.2-15.9-9-21.7c-5.8-5.7-13.5-8.9-21.6-8.9c0,0-0.1,0-0.1,0c-306.4,0.2-423.5,103.7-490.4,195c9.8-73.2,38.3-161.4,100.5-233.5c82.6-95.8,215.7-146.3,390-146.3c16.9,0,30.6-13.7,30.6-30.6V183.2L911,444.8L592.9,708.8z"/></g>
</svg>